/* XPM */
static char *pillar_rotate[] = {
/* columns rows colors chars-per-pixel */
"64 64 21 1 ",
"  c black",
". c #202020",
"X c #2C2C2C",
"o c gray22",
"O c gray25",
"+ c #484848",
"@ c #4C4C4C",
"# c gray33",
"$ c gray36",
"% c #646464",
"& c gray44",
"* c #7C7C7C",
"= c gray55",
"- c #989898",
"; c gray66",
": c #B4B4B4",
"> c #C0C0C0",
", c #D0D0D0",
"< c gainsboro",
"1 c #ECECEC",
"2 c gray99",
/* pixels */
"                                                                ",
"                                                                ",
"                                                          %%    ",
"                                                         %$$%   ",
"                                                         %$$$   ",
"                                                        %$##$%  ",
"                                                        %#@@#$  ",
"                                                        $#++@$% ",
"                                                        $@++@#% ",
"                                                        #+OO+@% ",
"                                                        #+ooO+% ",
"                                                        @OooO+% ",
"                                                        +oooo+% ",
"                                                        OooooO$ ",
"    XXX                                                 XXXXoO$ ",
"   XXXXX                                                XXXXXO$%",
"  X...XX                                               XXX...X#%",
"  ooX....                                              X...Xoo+$",
" #oooX...X                                            X...XoooO#",
" #OOOXo...XXXXXXX. oXXXXXXXXX. oXXXX.XXXXXo .XXXXXXXXX...oX@$OO+",
" +++o+XX..........X........... X.............X..........XX+@O++O",
" ###%OOoXX.........X... ...... X. .X..................oXoOO%$$#O",
" %%+%#+OoXXXoXXX..oXXXoXXXXXo. oXOX.XXXoXoX..oOXXXXXXXXoO+#&&%%#",
"%&&*%%##XoooXooo..+oooXo+oOoX..+oXoooOoXoXo..+XooooooooX##%%*&&%",
"&&**%%%%OOOOOOOOX.%#OOOOXOoOOX.#OO+OOoO+OOOX.#OOOOO#OOOO%%%%*=&&",
"&*==&&&&++++++%%+X#++++++++#+oX%++O##++O++#oX%++#++O+#++&&&&=**&",
"&=>-****##%###O#Oo&####%###+#Oo&###+####%#+Oo&##+%###+##****-==&",
"&=&-**==%%#%%%%%+O*%%%%#%%%%%+O*%*%%%%%%#%%+O*%%%#&%%%%%==**--=&",
"=--;==--&&&&&&&&#+=&&*&&&&&&&#+=&%&&&&*&&*&#+=&&&&%&&&&&--;=;--=",
"=-;:--;;********%#-*=&****-**%#-****=*&**&*%#--*-*******;;=-:;-=",
"=;::;;:;====;;==&%;=*=====*=-&%;=-==*==-===&%=*=*=======;:;;::;=",
"=;:>;;:>----=---*%:---------=*%:-=-----=----%:--------:->:;;>,;=",
"=:>>:,>>:;;;;=;;=&>;;;;;;;;;;=&>;;;;:;;;;;-&#>;<;;>;;;-;>>::>::=",
"=:>,:;>,;:::::::-&,::::::::::-&,::::;:::<::-&,:-::-<::::,>::,>:=",
"=>,<>>,<>>>>>>>>;*<>,11,>>><>;*<>>1>>>>>:>>;*<>>>>>;>>>><,>><,>=",
";>,<>>,<,,,,,,,,:=1,,:>,,2,:,:*>1,:,:2,,,1,:=1,,,,,,,,,,<,>><,>;",
";>,2,,<2<<<<<<<<>=2<<<<<<:<<<>=2<<<<<:2<<,<>-2<2<<<<22<<2<,,2,>;",
";,<2<,<211111111,;22111111111,=211121112111>>21,1111,,112<,<2<,;",
";,<21,1122222222<;12222222222<-2222<222<221>,2222222222211,12<,;",
" ,<12111222222221:<22222222221;222221222222<>1222222222211121<, ",
" <112112221122221;22222222222<-222222222221,:22222221122211211< ",
" <1122222>>>>>>>>=<<<>>>>;<>>-*,>>>>>>>>>>>;1,>>>>>>>>>2222211< ",
" ;1222211>-------- >>--------* ;----------* ;---------<1222221; ",
" ;2222111:                                            :1112222; ",
"  222122:                                              :221222  ",
"  >211<>                                                ><112>  ",
"   11<<>                                                ><<11   ",
"    <<>                                                  ><<    ",
"                                                                ",
"                                                                ",
"                                                                ",
"                                                                ",
"                                                                ",
"                                                                ",
"                                                                ",
"                                                                ",
"                                                                ",
"                                                                ",
"                                                                ",
"                                                                ",
"                                                                ",
"                                                                ",
"                                                                ",
"                                                                "
};
