/* XPM */
static char *_5e72eaf69bd4058a2de3d9c89b557e7gKS8KNcgJmPulRkk[] = {
/* columns rows colors chars-per-pixel */
"64 64 13 1 ",
"  c #393029",
". c #3E3231",
"X c #396445",
"o c #386E42",
"O c #3B676A",
"+ c #414D53",
"@ c #417F4D",
"# c #466264",
"$ c #436667",
"% c #527777",
"& c #5B787A",
"* c #4E8157",
"= c #5A878B",
/* pixels */
"XOOXXXXXXXoooooooooooooooooooooo oOOXXXXXXXXXXXXXXXXXXXXXXXXXXXX",
"++++++++++++++++++++++++++++++++ +++++++++++++++++++++++++++++++",
"&&&&&&########&&&&&&&@@XXXXXXX====OOOOOO======= &&&&&&&&     &&&",
"OO###################XXXXXXXXXOOOOOOOOOOOOOOOOO X#######&&&&&##O",
"OO###################XXXXXXXXOOOOOOOOOOOOOOOOOX X###############",
"####################XXXXXXXXOOOOOOOOOOOOOOOOOOX ################",
"####################XXOOXXXOOOOOOOOOOOOOOOOOOOX ###OO###########",
"#####################XOOOXXOOOOOOOOOOOOOOOOOOXX X##OO###########",
"      +++++++            +++++++++++++++++++++  +++++++++++++++ ",
"=============================== %%%%%%%%%%%%%%%%%%%%%%% ========",
"OOOOOOOOOOOOOOOOOOOOOOOOOOOOOOO $$$$$$$$$$$$$$$$$$$$$$X XOOOOOOO",
"OOOOOOOOOOOOOOOOOOOOOOOOOOOOOOO O$$$$$$$$$$$OOO$$$$$$$X XOOOOOOO",
"OOOOOOOOOOOOOOOOOOOOOOOOOOOOOOO $$$$$$$$$$$$OO$$$$$$$$$ XXXOOOOO",
"OOOOOOOOOOOOOOOOOOOOOOOOOOXOOXX $$$$$$$$$$$$$$$$$$$$$$X XXXOOOOO",
"OOOOOOOOOOOOOOOOOOOOOOOOOOXXXXX $$$$$$$$$$$$$$$$$$$$$$X XXXOOOOO",
"+++++++++++++++++++++++++++++++ +++++++++++++++++++++++ ++++++++",
"oooooo@@@@@@@ @@@@@@@XXXXXXXX@@@@@@@@ @@@@@@@@@ooooooo@@@@@@@@oo",
"oooooooooooXX XXXOOXXXXXXXXXXXXXXXXXX Xooooooooooooooooooooooooo",
"ooooooooooXXX XXXOOXXXXXXXXXXXXXXXXXX XXoooooooooooooooooooooooo",
"oooooooooooXX XXXXXXXXXXXXXXXXXXXXXXX XXoooooooooooooooooooooooo",
"oooooooooooOO XOOXXXOOXXXXXXXXXXXXXXX oXXooooooooooooooooooooooo",
"oooooooooooOO XOOXXOOOXXXXXXXXXXXXXXX oooooooooooooooooooooooooo",
"+++++++++++++ +++++++      ++++++++++ ++++++++++++++++++++++++++",
"@@@@@@XXXX@@@@@@@@@     ==== &&&&&&&&&&&&&&&&&&&&&& @@@@@@@@@@@@",
"XXXXXXXXXXXXXXXXXXXXXXXXXOOO #OO################### XXXXXXXXOOOO",
"XXXXXXXXXXXXXXXXXXXXXXXXXXOO #####################X XXXXXXXXOOXX",
"XXXXXXXXXXXXXXXXXXXXXXXXXXXX ############OO#######X XXXXXXXXXXXX",
"OXXXXXXXXXXXXXXXXXXXXXXXXXXX #####OO#####OO#######X XXXXXXXXXXXO",
"OXXXXXXXXXXXXXXXXXXXXXXXXXXX #####OOO#############X XXXXXXXXXXXO",
"+++++++++++++++++++++         +++++++     +++++++++  +++++++++++",
"OOOOOO==========    %%%%%%%   %%%%%%%%%%%%= ==========      OOOO",
"OOOOOOOOOOOOOOOOOXX $$$$$$$$$$$$$$$O$$$$$$X OOOOOOOOOOOOOOOOOOOO",
"OOOOOOOOOOOOOOOOOXX XX$$$$$$$$$$$$O$$$$$$$$ OOOOOOOOOOOOOOOOOOOO",
"OOOOOOOOOOOOOOOOOXX XX$$$$$$$$$$$O$$$$$$$$$ OOOOOOOOOOOOOOOOOOOO",
"OOOOOOOOOOOOOOOOOXX X$$$$$$$$$$$$$$$$$$$$$$ OOOOOOOOOOOOOOOOOOOO",
"OOOOOOOOOOOOOOOOXXX X$$$$$$$$$$$$$$$$$$$$$$ XOOOOOOOOOOOOOOOOOOO",
"+++++++++++++++++++ +++      ++++          +++++++++++++++++++++",
"&&&&&&&&&&&&&&&&&&&&&&&&@@@ @@@@@@@@@@@@@@@@@@@@@@@ &&&&&&&&&&&&",
"########################XXX XoooooooooooooooooooXXX #XX#########",
"####################OO###XX XXooooooooooooooooXXXXX OOX#########",
"####################OO##XXX XoooooooooooOooooooXXXX OXXOO#######",
"#########################XX XXoooooooooOOoooooooXXX XXXOO#######",
"#########################XX XXoooooooooOOoooooooXXX XXX#########",
"++++  +++++++++++++++++++++ +++++++++++++++++++++++ + ++++++++++",
"@@==@@@@@@@@@ ======================= @@@@@@@@@@@@@@@@@@@@@==@@@",
"XXO*********X OOOOOOOOOOOOOOOOOOOOOOO XXXXXXXXXXXXXXXXXXXXXOOXXX",
"XXX*********X OOOOOOOOOOOOOOOOOOOOOOO XXXXXXXXXXXXOOXXXXXXXOOXXX",
"XXXX********X OOOOOOOOOOOOOOOOOOOOOXX XXXXXXXXXXXOOOXXXXXXXXXXXX",
"XXXXXXXXX***X OOOOOOOOOOOOOOOOOOOOXXX XXXXXXXXXXXXXXXXXXXXXXXXXX",
"XXXXXXXXX***X OOOOOOOOOOOOOOOOOOOXXXX XXXXXXXXXXXXXXXXXXXXXXXXXX",
"++++++++++++   +      ++++++++++++++  ++++++++++++  ++++++++++++",
"%%%%%      %%%%%%%%%%%%%%&&&&&&&&&&&&&&&&&&&&&   =======%%%%%%%%",
"$$$$$%%%%%%$$$$$$$$$$$$XXX###################### OOOOO$$$$$$$$$$",
"$$$$$$$$$$$$$$$$$$$$$XXXXX###################### OOO$$$$$$$$$$$$",
"$$$$$$$$$$$$$$$$$$$XXXXXX####################### OO$$$$$$$$$$$$$",
"$$$$$$$$$$$$$$$$$$$$XXXXX####################### OO$$$$$$$$$$$$$",
"$$$$$$$$$$$$$$$$$$$XXXXXXXX##################### X$$$$OO$$$$$$$$",
"$$$$$$$$$$$$$$$$$$XXXXXXXXX####################X XXX$$OO$$$$$$$$",
"++++++++++++++++++++++++++++++++++++++++++++++++ .++++++++++++++",
"@@@====@@@oooooooooo@@===oo==@@@ @====@@XXXXXXXXXXX@@@===@@@@@@@",
"XXXOOOXXoooooooooooooooOOooOOooo ooOOOXXXXXXXXXXXXXXXXOOOXXXXXXX",
"XXXOOOXXoooooooooooooooOOooooooo oooOOXXXXXXXXXXXXXXXXOOXXXXXXXX",
"XXXXXXXXoooooooooooooooooooooooo ooooXXXXXXXXXXXXXXXXXXX********",
"XXXXXXXXoooooooooooooooooooooooo oooXXXXXXXXXXXXXXXXXXXX********"
};
