/* XPM */
static char *f509ce0710634e7392bd32de6353b875UiTlmSrjZFt3D2iK[] = {
/* columns rows colors chars-per-pixel */
"64 64 9 1 ",
"  c #393029",
". c #3E3231",
"X c #46392F",
"o c #584432",
"O c #664A32",
"+ c #634B35",
"@ c #72563E",
"# c #7A583A",
"$ c #7E634A",
/* pixels */
"XXXXXXXXXXXXXXXXXXXXX XXXXXXXXXXXXXXXXXXXXXXXXXXXXXXXXXXXXXXXXXX",
"OOO$$$$$$$$$ooooooo$$$$######$$$$$$$ $$$$$$$$     $$$$$$$$$OOOOO",
"OOOOOOOOOOooooooooo################# oOOOOOOO$$$$$OO###OOOOOOOOO",
"OOOOOOOOOOoooooooo#################o oOOOOOOOOOOOOOOO##OOOOOOOOO",
"OOOOOOOOOoooooooo##################o OOOOOOOOOOOOOOOOOOOOOOOOOOO",
"OOOOOOOOOoo##ooo###################o OOO##OOOOOOOOOOOOOOOOOOOOOO",
"OOOOOOOOOOo###oo##################oo oOO##OOOOOOOOOOOOOOOOOOOOOO",
"XX            XXXXXXXXXXXXXXXXXXXXX  XXXXXXXXXXXXXXX       XXXXX",
"$$$$$$$$$$$$$$$$$$$$ $$$$$$$$$$$$$$$$$$$$$$$ $$$$$$$$$$$$$$$$$$$",
"#################### @@@@@@@@@@@@@@@@@@@@@@o o##################",
"#################### #@@@@@@@@@@@###@@@@@@@o o##################",
"#################### @@@@@@@@@@@@##@@@@@@@@@ ooo################",
"###############o##oo @@@@@@@@@@@@@@@@@@@@@@o ooo################",
"###############ooooo @@@@@@@@@@@@@@@@@@@@@@o ooo################",
"XXXXXXXXXXXXXXXXXXXX XXXXXXXXXXXXXXXXXXXXXXX XXXXXXXXXXXXXXXXXXX",
"$$ $$$$$$$oooooooo$$$$$$$$ $$$$$$$$$+++++++$$$$$$$$++++++++$$$$$",
"oo ooo##oooooooooooooooooo o++++++++++++++++++++++++++++++++++++",
"oo ooo##oooooooooooooooooo oo++++++++++++++++++++++++++++++++++o",
"oo ooooooooooooooooooooooo oo+++++++++++++++++++++++++++++++++++",
"## o##ooo##ooooooooooooooo +oo++++++++++++++++++++++++++++++++++",
"## o##oo###ooooooooooooooo +++++++++++++++++++++++++++++++++++++",
"XX XXXXXXX      XXXXXXXXXX XXXXXXXXXXXXXXXXXXXXXXXXXXXXXXXXXXXXX",
"$$$$$$$$     $$$$ $$$$$$$$$$$$$$$$$$$$$$ $$$$$$$$$$$$$$$$$$oooo$",
"oooooooooooooo### O##OOOOOOOOOOOOOOOOOOO oooooooo####ooooooooooo",
"ooooooooooooooo## OOOOOOOOOOOOOOOOOOOOOo oooooooo##ooooooooooooo",
"ooooooooooooooooo OOOOOOOOOOOO##OOOOOOOo ooooooooooooooooooooooo",
"ooooooooooooooooo OOOOO##OOOOO##OOOOOOOo ooooooooooo##oooooooooo",
"ooooooooooooooooo OOOOO###OOOOOOOOOOOOOo ooooooooooo##oooooooooo",
"XXXXXXXXXX         XXXXXXX     XXXXXXXXX  XXXXXXXXXXXXXXXXXXXXXX",
"$$$$$    $$$$$$$   $$$$$$$$$$$$$$$$$$$$$$$$      ##########$$$$$",
"######oo @@@@@@@@@@@@@@@#@@@@@@oo###############################",
"######oo oo@@@@@@@@@@@@#@@@@@@@@@###############################",
"######oo oo@@@@@@@@@@@#@@@@@@@@@@###############################",
"######oo o@@@@@@@@@@@@@@@@@@@@@@@###############################",
"#####ooo o@@@@@@@@@@@@@@@@@@@@@@oo##############################",
"XXXXXXXX XXX      XXXX          XXXXXXXXXXXXXXXXXXXXXXXXXXXXXXXX",
"$$$$$$$$$$$$$$$$ $$$$$$$$$$$$$$$$$$$$$$$ $$$$$$$$$$$$$$$$$$$$$$$",
"OOOOOOOOOOOOOooo o+++++++++++++++++++ooo OooOOOOOOOOOOOOOOOOOOOO",
"OOOOOOOOO##OOOoo oo++++++++++++++++ooooo ##oOOOOOOOOOOOOOOOOOOOO",
"OOOOOOOOO##OOooo o+++++++++++#++++++oooo #oo##OOOOOOOOOOOOOOOOOO",
"OOOOOOOOOOOOOOoo oo+++++++++##+++++++ooo ooo##OOOOOOOOOOOOOOOOOO",
"OOOOOOOOOOOOOOoo oo+++++++++##+++++++ooo oooOOOOOOOOOOOOOOOOOOOO",
"XXXXXXXXXXXXXXXX XXXXXXXXXXXXXXXXXXXXXXX X XXXXXXXXXXXXXX  XXXXX",
"$$ $$$$$$$$$$$$$$$$$$$$$$$ $$$$$$$$$$$$$$$$$$$$$$$$$$$$$$$$$$$$$",
"## ####################### ooooooooooooooooooooo##ooooo##ooooooo",
"## ####################### oooooooooooo##ooooooo##oooooooooooooo",
"## #####################oo ooooooooooo###ooooooooooooooooooooooo",
"## ####################ooo ooooooooooooooooooooooooooooooooooooo",
"## ###################oooo ooooooooooooooooooooooooooooooooooooo",
"X   X      XXXXXXXXXXXXXX  XXXXXXXXXXXX  XXXXXXXXXXXXXXXXXXXXXXX",
"$$$$$$$$$$$$$$$$$$$$$$$$$$$$$$$$$$$   $$$$$$$$$$$$$$$$$$$$      ",
"@@@@@@@@@@@@oooOOOOOOOOOOOOOOOOOOOOOO #####@@@@@@@@@@@@@@@$$$$$$",
"@@@@@@@@@@oooooOOOOOOOOOOOOOOOOOOOOOO ###@@@@@@@@@@@@@@@@@@@@@@@",
"@@@@@@@@ooooooOOOOOOOOOOOOOOOOOOOOOOO ##@@@@@@@@@@@@@@@@@@@@@@@@",
"@@@@@@@@@oooooOOOOOOOOOOOOOOOOOOOOOOO ##@@@@@@@@@@@@@@@@@@@@@@@@",
"@@@@@@@@ooooooooOOOOOOOOOOOOOOOOOOOOO o@@@@##@@@@@@@@@@@@@@@@@@@",
"@@@@@@@oooooooooOOOOOOOOOOOOOOOOOOOOo ooo@@##@@@@@@@@@@@@@@@@@@@",
"XXXXXXXXXXXXXXXXXXXXXXXXXXXXXXXXXXXXX .XXXXXXXXXXXXXXXXXXXXXXXXX",
"+++++++++$$$$$++$$$$$ $$$$$$$ooooooooooo$$$$$$$$$$$$$####XXXXXXX",
"++++++++++++##++##+++ ++###oooooooooooooooo###ooooooo#######XXXX",
"++++++++++++##+++++++ +++##oooooooooooooooo##oooooooooo#####XXXX",
"+++++++++++++++++++++ ++++ooooooooooooooooooo##############XXXXX",
"+++++++++++++++++++++ +++oooooooooooooooooooo#############XX    ",
"+++++++++++++++++++++ +##oooooooooooooooooooooooo####XXXXXXX    "
};
