/* XPM */
static char *_3cd9b9a73704367beac06a6f2b2d743imPYp4gu0hRTU49B[] = {
/* columns rows colors chars-per-pixel */
"64 64 12 1 ",
"  c #393029",
". c #3E3231",
"X c #46392F",
"o c #673429",
"O c #7F4F41",
"+ c #883E38",
"@ c #8F3F39",
"# c #994F4A",
"$ c #9E5550",
"% c #925B57",
"& c #AD645F",
"* c #A06864",
/* pixels */
"XXXXXXXXXXXXXXXXXXXXXXXXXXXXXXXXXXXXXXXXXXXXXXXXXXXXX .XXXXXXXXX",
"OOOOOOOO####OOOooooooooooOO###oo##OOO O####OO+++++++++++OOO###OO",
"++++++++@@@++ooooooooooooooo@@oo@@ooo oo@@@++++++++++++++++@@@++",
"++++++++@@@++ooooooooooooooo@@ooooooo ooo@@++++++++++++++++@@+++",
"+++++++++++++oooooooooooooooooooooooo oooo++++++++++++++++++++++",
"+++++++++++++oooooooooooooooooooooooo ooo+++++++++++++++++++++++",
"++++++@@+++++++oooooooooooooooooooooo o@@+++++++++++++++++++++++",
"XXXXXXXXXXXXXXXXXXXXXXXXXXXXXXXXXXXXX XXXXXXXXXXXXXXXXXXXXXXXXXX",
"  &&&&&&&&&$$$$$$$$&&&&&&&OO+++++++####@@@@@@####### &&&&&&&&   ",
"&&$$@@@$$$$$$$$$$$$$$$$$$$+++++++++@@@@@@@@@@@@@@@@@ +$$$$$$$&&&",
"$$$$$@@$$$$$$$$$$$$$$$$$$$++++++++@@@@@@@@@@@@@@@@@+ +$$$$$$$$$$",
"$$$$$$$$$$$$$$$$$$$$$$$$$++++++++@@@@@@@@@@@@@@@@@@+ $$$$$$$$$$$",
"$$$$$$$$$$$$$$$$$$$$$$$$$++@@+++@@@@@@@@@@@@@@@@@@@+ $$$@@$$$$$$",
"$$$$$$$$$$$$$$$$$$$$$$$$$$+@@@++@@@@@@@@@@@@@@@@@@++ +$$@@$$$$$$",
"XXXX       XXXXXXX            XXXXXXXXXXXXXXXXXXXXX  XXXXXXXXXXX",
"#################################### *********************** ###",
"@@@@@@@@@@@@@@@@@@@@@@@@@@@@@@@@@@@@ %%%%%%%%%%%%%%%%%%%%%%+ +@@",
"@@@@@@@@@@@@@@@@@@@@@@@@@@@@@@@@@@@@ @%%%%%%%%%%%@@@%%%%%%%+ +@@",
"@@@@@@@@@@@@@@@@@@@@@@@@@@@@@@@@@@@@ %%%%%%%%%%%%@@%%%%%%%%% +++",
"@@@@@@@@@@@@@@@@@@@@@@@@@@@@@@@+@@++ %%%%%%%%%%%%%%%%%%%%%%+ +++",
"@@@@@@@@@@@@@@@@@@@@@@@@@@@@@@@+++++ %%%%%%%%%%%%%%%%%%%%%%+ +++",
"XXXXXXXXXXXXXXXXXXXXXXXXXXXXXXXXXXXX XXXXXXXXXXXXXXXXXXXXXXX XXX",
"OOOooooooooOOOOOOO OOOOOOO++++++++OOOOOOOO OOOOOOOOOoooooooOOOOO",
"oooooooooooooooo++ +++@@++++++++++++++++++ +oooooooooooooooooooo",
"ooooooooooooooo+++ +++@@++++++++++++++++++ ++ooooooooooooooooooo",
"oooooooooooooooo++ +++++++++++++++++++++++ ++ooooooooooooooooooo",
"oooooooooooooooo@@ +@@+++@@+++++++++++++++ o++oooooooooooooooooo",
"oooooooooooooooo@@ +@@++@@@+++++++++++++++ ooooooooooooooooooooo",
"XXXXXXXXXXXXXXXXXX XXXXXXX      XXXXXXXXXX XXXXXXXXXXXXXXXXXXXXX",
"OOOOOOOOOOO++++OOOOOOOOO     #### &&&&&&&&&&&&&&&&&&&&&& OOOOOOO",
"+@@@@+++++++++++++++++++++++++@@@ $@@$$$$$$$$$$$$$$$$$$$ +++++++",
"+@@++++++++++++++++++++++++++++@@ $$$$$$$$$$$$$$$$$$$$$+ +++++++",
"+++++++++++++++++++++++++++++++++ $$$$$$$$$$$$@@$$$$$$$+ +++++++",
"++++@@+++++++++++++++++++++++++++ $$$$$@@$$$$$@@$$$$$$$+ +++++++",
"++++@@+++++++++++++++++++++++++++ $$$$$@@@$$$$$$$$$$$$$+ +++++++",
"XXXXXXXXXXXXXXXXXXXXXXXXXX         XXXXXXX     XXXXXXXXX  XXXXXX",
" @@@@@@@@@@##########    *******   ************# ##########     ",
"@@@@@@@@@@@@@@@@@@@@@@++ %%%%%%%%%%%%%%%@%%%%%%+ @@@@@@@@@@@@@@@",
"@@@@@@@@@@@@@@@@@@@@@@++ ++%%%%%%%%%%%%@%%%%%%%% @@@@@@@@@@@@@@@",
"@@@@@@@@@@@@@@@@@@@@@@++ ++%%%%%%%%%%%@%%%%%%%%% @@@@@@@@@@@@@@@",
"@@@@@@@@@@@@@@@@@@@@@@++ +%%%%%%%%%%%%%%%%%%%%%% @@@@@@@@@@@@@@@",
"@@@@@@@@@@@@@@@@@@@@@+++ +%%%%%%%%%%%%%%%%%%%%%% +@@@@@@@@@@@@@@",
"XXXXXXXXXXXXXXXXXXXXXXXX XXX      XXXX          XXXXXXXXXXXXXXXX",
"&&&&&&&&&&&&&&&&&&&&&&&&&&&&&OOO OOOOOOOOOOOOOOOOOOOOOOO &&&&&&&",
"$$$$$$$$$$$$$$$$$$$$$$$$$$$$$+++ +ooooooooooooooooooo+++ $++$$$$",
"$$$$$$$$$$$$$$$$$$$$$$$$$@@$$$++ ++oooooooooooooooo+++++ @@+$$$$",
"$$$$$$$$$$$$$$$$$$$$$$$$$@@$$+++ +ooooooooooo@oooooo++++ @++@@$$",
"$$$$$$$$$$$$$$$$$$$$$$$$$$$$$$++ ++ooooooooo@@ooooooo+++ +++@@$$",
"$$$$$$$$$$$$$$$$$$$$$$$$$$$$$$++ ++ooooooooo@@ooooooo+++ +++$$$$",
"XXXXXXXXX  XXXXXXXXXXXXXXXXXXXXX XXXXXXXXXXXXXXXXXXXXXXX X XXXXX",
"##OOOOO##OOOOOOOOO ####################### OOOOOOOOOOOOOOOOOOOOO",
"+@+++++@OOOOOOOOO+ @@@@@@@@@@@@@@@@@@@@@@@ +++++++++++++++++++++",
"++++++++OOOOOOOOO+ @@@@@@@@@@@@@@@@@@@@@@@ ++++++++++++@@+++++++",
"+++++++++OOOOOOOO+ @@@@@@@@@@@@@@@@@@@@@++ +++++++++++@@@+++++++",
"++++++++++++++OOO+ @@@@@@@@@@@@@@@@@@@@+++ +++++++++++++++++++++",
"++++++++++++++OOO+ @@@@@@@@@@@@@@@@@@@++++ +++++++++++++++++++++",
"XXXXXXXXXXXXXXXXX   X      XXXXXXXXXXXXXX  XXXXXXXXXXXX  XXXXXXX",
"**********      **************&&&&&&&&&&&&&&&&&&&&&   #######***",
"%%%%%%%%%%******%%%%%%%%%%%%+++$$$$$$$$$$$$$$$$$$$$$$ @@@@@%%%%%",
"%%%%%%%%%%%%%%%%%%%%%%%%%%+++++$$$$$$$$$$$$$$$$$$$$$$ @@@%%%%%%%",
"%%%%%%%%%%%%%%%%%%%%%%%%++++++$$$$$$$$$$$$$$$$$$$$$$$ @@%%%%%%%%",
"%%%%%%%%%%%%%%%%%%%%%%%%%+++++$$$$$$$$$$$$$$$$$$$$$$$ @@%%%%%%%%",
"%%%%%%%%%%%%%%%%%%%%%%%%++++++++$$$$$$$$$$$$$$$$$$$$$ +%%%%@@%%%",
"%%%%%%%%%%%%%%%%%%%%%%%+++++++++$$$$$$$$$$$$$$$$$$$$+ +++%%@@%%%"
};
