/* XPM */
static char *_fb45a39108c40c6c7883308db715276wdGANdcELUdrVLtJ[] = {
/* columns rows colors chars-per-pixel */
"64 64 12 1 ",
"  c #3E3231",
". c #3C3C3C",
"X c #3A3140",
"o c #6C6C6C",
"O c #727272",
"+ c #777777",
"@ c gray49",
"# c gray51",
"$ c #868686",
"% c gray57",
"& c gray61",
"* c #AFAFAF",
/* pixels */
"@XXXX$$$$$$$XXX$$$$$$$$$$$$@X@@@@@@@@@@XXXXXXoooooooooo@@@@@@@@@",
"oo&&X+++++++++++++++o++++++&Xooooooooooooooooooooooooooooooooooo",
"oo&&X&&++++++++++++o++++++++Xooooooooooooooooooooooooooooooooooo",
"oo&&X&&+++++++++++o+++++++++Xooooooooooooooooooooooooooooooooooo",
"oo&&X&++++++++++++++++++++++Xooooooooooooooooooooooooooooooooooo",
"o&&&X&++++++++++++++++++++++X&oooooooooooooooooooooooooooooooooo",
"....X...XXXXXX....XXXXXXXXXX....................................",
"@@@@@@@@@***X***********************X@@@@@@@@@@@@@@@@@@@@@@@@@@@",
"OOOOOOOOO&&&X&%%%%%%%%%%%%%%%%%%%&&&XO&&OOOOOOOOOOOOOOOOOOOOOOOO",
"OOOOOooOOO&&X&&%%%%%%%%%%%%%%%%&&&&&Xoo&OOOOOOOOOOOOOOOOOOOOOOOO",
"OOOOOooOO&&&X&%%%%%%%%%%%o%%%%%%&&&&Xo&&ooOOOOOOOOOOOOOOOOOOOOOO",
"OOOOOOOOOO&&X&&%%%%%%%%%oo%%%%%%%&&&X&&&ooOOOOOOOOOOOOOOOOOOOOOO",
"OOOOOOOOOO&&X&&%%%%%%%%%oo%%%%%%%&&&X&&&OOOOOOOOOOOOOOOOOOOOOOOO",
"............X.......................X.X..............XX.........",
"@@@@@@@@@@@@@@@@@@@@@@X*********************@@*****@@*********X@",
"ooooooooooooooooooooooX&&&&&&&&&&&&&&&&&&&&&oo&&&&&oo&&&&&&&&&Xo",
"ooooooooooooooooooooooX&&&&&&&&&&&&oo&&&&&&&oo&&&&&&&&&&&&&&&&Xo",
"oooooooooooooooooooo&&X&&&&&&&&&&&ooo&&&&&&&&&&&&&&&&&&&&&&&&&Xo",
"ooooooooooooooooooo&&&X&&&&&&&&&&&&&&&&&&&&&&&&&&&&&&&&&&&&&&&Xo",
"oooooooooooooooooo&&&&X&&&&&&&&&&&&&&&&&&&&&&&&&&&&&&&&&&&&&&&Xo",
".XXXXXX..............XX............XX........................XXX",
"$$$$$$$$$$@@@@@@@@@@@@@@@@@@@@@XXX@@@@@@@$$$$$$$$$$$$$XXXXXX$$$$",
"++++++++&&&OOOOOOOOOOOOOOOOOOOOOOXooooo+++++++++++++++$$$$$$++++",
"++++++&&&&&OOOOOOOOOOOOOOOOOOOOOOXooo+++++++++++++++++++++++++++",
"++++&&&&&&OOOOOOOOOOOOOOOOOOOOOOOXoo++++++++++++++++++++++++++++",
"+++++&&&&&OOOOOOOOOOOOOOOOOOOOOOOXoo++++++++++++++++++++++++++++",
"++++&&&&&&&&OOOOOOOOOOOOOOOOOOOOOX&++++oo+++++++++++++++++++++++",
"+++&&&&&&&&&OOOOOOOOOOOOOOOOOOOO&X&&&++oo+++++++++++++++++++++++",
".................................X .............................",
"%%%%%**@@@%%@@***X*@@@@**&&&&&&&&&&&***@@@*******####.........XX",
"%%%%%%%%oo%%oo%%%X%%ooo&&&&&&&&&&&&&&&&ooo&&&&&&&#######....XXXX",
"%%%%%%%%oo%%%%%%%X%%%oo&&&&&&&&&&&&&&&&oo&&&&&&&&&&#####........",
"%%%%%%%%%%%%%%%%%X%%%%&&&&&&&&&&&&&&&&&&&##############.........",
"%%%%%%%%%%%%%%%%%X%%%&&&&&&&&&&&&&&&&&&&&#############..XXXXXXXX",
"%%%%%%%%%%%%%%%%%X%oo&&&&&&&&&&&&&&&&&&&&&&&&####.......XXXXXXXX",
".................X..............................................",
"@@@@@@**&&&&&&&@@@@oooooo@@@@@@@X@@@@@@@@XXXXX@@@@@@@@@OOOOOOOO@",
"OOOOOO&&&&&&&&&oooooooooooooooooX&OOOOOOO@@@@@OOoooOOOOOOOOOOOOO",
"OOOOOO&&&&&&&&ooooooooooooooooo&X&OOOOOOOOOOOOOOOooOOOOOOOOOOOOO",
"OOOOO&&&&&&&&oooooooooooooooooo&XOOOOOOOOOOOOOOOOOOOOOOOOOOOOOOO",
"OOOOO&&oo&&&ooooooooooooooooooo&XOOOooOOOOOOOOOOOOOOOOOOOOOOOOOO",
"OOOOOO&ooo&&oooooooooooooooooo&&X&OOooOOOOOOOOOOOOOOOOOOOOOOOOOO",
"XXXXXXXXXX.....................XX...............XXXXXXX.......XX",
"@@@@@@@@@@@@@@@@XXXXXXXXXXXXXXXXXXXXX.........&&&&&&&&@@@@@@@@@@",
"ooooooooooooooooXXXXXXXXXXXXXXX...............&&&&&&&&oooooooooo",
"ooooooooooooooooXXXXXXXXXXXXXXX..............&&&&&&ooooooooooooo",
"ooooooooooooooooXXXXXXXXXXXXXXXXXXXXXXX......&&&&&&&&&&ooooooooo",
"ooooooooooo&oo&&XXXXXXXXXXXXXXXXXXXXXX.....&&&&&&&&&&&&ooooooooo",
"ooooooooooo&&&&&XXXXXXXXXXXXXXXXXXXX.......&&&&ooooooooooooooooo",
"................X...............................................",
"******&&&&&&&&********X*********%%%%%%%********%%%%%%%%*******X*",
"&&oo&&&&&&&&&&&&&&&&&&X&%%%%%%%%%%%%%%%%%%%%%%%%%%%%%%%%%%%%&&X&",
"&&oo&&&&&&&&&&&&&&&&&&X&&%%%%%%%%%%%%%%%%%%%%%%%%%%%%%%%%%%&&&X&",
"&&&&&&&&&&&&&&&&&&&&&&X&&%%%%%%%%%%%%%%%%%%%%%%%%%%%%%%%%%%%&&X&",
"oo&&&oo&&&&&&&&&&&&&&&X%&&%%%%%%%%%%%%%%%%%%%%%%%%%%%%%%%%%%ooX&",
"oo&&ooo&&&&&&&&&&&&&&&X%%%%%%%%%%%%%%%%%%%%%%%%%%%%%%%%%%%%%ooX&",
"......XXXXXX..........X.......................................X.",
"****XXXXX@@@@X@@@@@@@@@@@@@@@@@&&&&&....XXXXXXXXXXXXXXXXXXXXXXXX",
"&&&&&&&&&&oooXOooOOOOOOOOOOOOOO&&&&&....XXXXXXXXXXXXXXXXXXXXXXXX",
"&&&&&&&&&&&ooXOOOOOOOOOOOOOOOOOOO&&&.............XXXXXXXXXXXXXXX",
"&&&&&&&&&&&&&XOOOOOOOOOOOOooOOOO&&&&&&..........XXXXXXXXXXXXXXXX",
"&&&&&&&&&&&&&XOOOOOooOOOOO&&&&&&&&&&&.......XXXXXXXXXXXXXXXX....",
"&&&&&&&&&&&&&XOOOOOoooOOOOOO&&&&&&..........XXXXXXXXXXXXXXXX....",
"......XXXXXXXXX.......XXXXX.........XX.........................."
};
